<svg xmlns="http://www.w3.org/2000/svg" width="22.5" height="25.714" viewBox="0 0 22.5 25.714">
  <path id="Icon_awesome-calendar-alt" data-name="Icon awesome-calendar-alt" d="M0,23.3a2.411,2.411,0,0,0,2.411,2.411H20.089A2.411,2.411,0,0,0,22.5,23.3V9.643H0ZM16.071,13.46a.6.6,0,0,1,.6-.6h2.009a.6.6,0,0,1,.6.6v2.009a.6.6,0,0,1-.6.6H16.674a.6.6,0,0,1-.6-.6Zm0,6.429a.6.6,0,0,1,.6-.6h2.009a.6.6,0,0,1,.6.6V21.9a.6.6,0,0,1-.6.6H16.674a.6.6,0,0,1-.6-.6ZM9.643,13.46a.6.6,0,0,1,.6-.6h2.009a.6.6,0,0,1,.6.6v2.009a.6.6,0,0,1-.6.6H10.246a.6.6,0,0,1-.6-.6Zm0,6.429a.6.6,0,0,1,.6-.6h2.009a.6.6,0,0,1,.6.6V21.9a.6.6,0,0,1-.6.6H10.246a.6.6,0,0,1-.6-.6ZM3.214,13.46a.6.6,0,0,1,.6-.6H5.826a.6.6,0,0,1,.6.6v2.009a.6.6,0,0,1-.6.6H3.817a.6.6,0,0,1-.6-.6Zm0,6.429a.6.6,0,0,1,.6-.6H5.826a.6.6,0,0,1,.6.6V21.9a.6.6,0,0,1-.6.6H3.817a.6.6,0,0,1-.6-.6ZM20.089,3.214H17.679V.8a.806.806,0,0,0-.8-.8H15.268a.806.806,0,0,0-.8.8V3.214H8.036V.8a.806.806,0,0,0-.8-.8H5.625a.806.806,0,0,0-.8.8V3.214H2.411A2.411,2.411,0,0,0,0,5.625V8.036H22.5V5.625A2.411,2.411,0,0,0,20.089,3.214Z" fill="#3a0ca3"/>
</svg>
