<svg xmlns="http://www.w3.org/2000/svg" width="145.088" height="45.482" viewBox="0 0 145.088 45.482">
  <g id="Grupo_10" data-name="Grupo 10" transform="translate(-848.232 -198.382)">
    <g id="Grupo_8" data-name="Grupo 8" transform="translate(900.36 205.016)">
      <path id="Caminho_7" data-name="Caminho 7" d="M950.679,211.988h2.426a1.036,1.036,0,0,1,1.036,1.037v25.892a.651.651,0,0,0,.651.651h15.364a1.037,1.037,0,0,1,1.036,1.036v1.841a1.037,1.037,0,0,1-1.036,1.037H950.679a1.037,1.037,0,0,1-1.037-1.037V213.025A1.037,1.037,0,0,1,950.679,211.988Z" transform="translate(-949.642 -211.628)" fill="#fff"/>
      <path id="Caminho_8" data-name="Caminho 8" d="M1017.559,235.608h-15.874a.662.662,0,0,0-.605.395l-3.018,6.86a1.037,1.037,0,0,1-.949.619h-2.351a1.037,1.037,0,0,1-.944-1.464l13.323-29.421a1.038,1.038,0,0,1,.945-.609h3.118a1.037,1.037,0,0,1,.944.608l13.365,29.421a1.037,1.037,0,0,1-.944,1.465h-2.438a1.037,1.037,0,0,1-.949-.619l-3.018-6.86A.662.662,0,0,0,1017.559,235.608Zm-1.46-4.317-6.009-13.65a.512.512,0,0,0-.937,0l-6.008,13.65a.512.512,0,0,0,.468.718h12.017A.512.512,0,0,0,1016.1,231.291Z" transform="translate(-971.064 -211.628)" fill="#fff"/>
      <path id="Caminho_9" data-name="Caminho 9" d="M1064.907,211.988h2.426a1.037,1.037,0,0,1,1.037,1.037v29.421a1.037,1.037,0,0,1-1.037,1.037h-2.426a1.037,1.037,0,0,1-1.036-1.037V213.025A1.037,1.037,0,0,1,1064.907,211.988Z" transform="translate(-1005.154 -211.628)" fill="#fff"/>
      <path id="Caminho_10" data-name="Caminho 10" d="M1088.735,242.4a15.151,15.151,0,0,1-4.558-2.314,1.037,1.037,0,0,1-.3-1.262l.759-1.6a1.036,1.036,0,0,1,1.527-.417,14.933,14.933,0,0,0,3.649,1.86,16.935,16.935,0,0,0,5.781,1.012,10.411,10.411,0,0,0,5.849-1.327,4.092,4.092,0,0,0,1.934-3.532,3.48,3.48,0,0,0-1.057-2.632,7.075,7.075,0,0,0-2.609-1.552q-1.552-.54-4.387-1.215a45,45,0,0,1-5.736-1.71,9.467,9.467,0,0,1-3.734-2.632,7.028,7.028,0,0,1-1.552-4.792,8.106,8.106,0,0,1,1.327-4.544,9.116,9.116,0,0,1,4.027-3.239,16.326,16.326,0,0,1,6.7-1.215,21.232,21.232,0,0,1,5.489.72,15.336,15.336,0,0,1,3.869,1.578,1.041,1.041,0,0,1,.435,1.293l-.7,1.7a1.034,1.034,0,0,1-1.451.513,16.31,16.31,0,0,0-3.231-1.326,15.81,15.81,0,0,0-4.409-.652,9.717,9.717,0,0,0-5.736,1.395,4.272,4.272,0,0,0-1.912,3.6,3.442,3.442,0,0,0,1.079,2.632,7.49,7.49,0,0,0,2.677,1.575,41.481,41.481,0,0,0,4.342,1.192,44.183,44.183,0,0,1,5.714,1.71,9.619,9.619,0,0,1,3.711,2.609,6.873,6.873,0,0,1,1.552,4.724,8.04,8.04,0,0,1-1.35,4.522,9.033,9.033,0,0,1-4.094,3.239,16.923,16.923,0,0,1-6.749,1.193A21.529,21.529,0,0,1,1088.735,242.4Z" transform="translate(-1014.828 -211.288)" fill="#fff"/>
    </g>
    <g id="Grupo_9" data-name="Grupo 9" transform="translate(848.232 198.382)">
      <path id="Caminho_11" data-name="Caminho 11" d="M893.185,239.274A1.723,1.723,0,0,0,891.464,241a19.3,19.3,0,0,1-37.44,6.6,1.721,1.721,0,0,0-3.234,1.178A22.745,22.745,0,0,0,894.906,241,1.723,1.723,0,0,0,893.185,239.274Z" transform="translate(-849.424 -218.254)" fill="#fff"/>
      <path id="Caminho_12" data-name="Caminho 12" d="M891.993,230.1H881.223l-3.887-8.688a1.726,1.726,0,0,0-1.584-1.017H875.7a1.714,1.714,0,0,0-1.555,1.131l-4.456,12.235-3.4-8.484a1.718,1.718,0,0,0-1.559-1.081H864.7a1.725,1.725,0,0,0-1.567,1.011l-2.216,4.893H849.953a1.721,1.721,0,0,0,0,3.442h12.071a1.723,1.723,0,0,0,1.567-1.011L864.6,230.3l3.569,8.916a1.713,1.713,0,0,0,1.6,1.082h.027a1.731,1.731,0,0,0,1.59-1.132l4.544-12.476,2.609,5.83a1.722,1.722,0,0,0,1.571,1.018h11.885a1.721,1.721,0,1,0,0-3.442Zm-22.226,10.073Z" transform="translate(-848.232 -209.079)" fill="#fff"/>
      <path id="Caminho_13" data-name="Caminho 13" d="M892.348,213.343a22.745,22.745,0,0,0-44.116,7.78,1.721,1.721,0,0,0,3.441,0,19.3,19.3,0,0,1,37.44-6.6,1.721,1.721,0,1,0,3.234-1.177Z" transform="translate(-848.232 -198.382)" fill="#fff"/>
    </g>
  </g>
</svg>
