<svg xmlns="http://www.w3.org/2000/svg" width="38.77" height="38.77" viewBox="0 0 38.77 38.77">
  <g id="Grupo_561" data-name="Grupo 561" transform="translate(1.839 19.601) rotate(-45)">
    <g id="Caminho_212" data-name="Caminho 212" transform="translate(0 0)" fill="#f72585" stroke-linejoin="round">
      <path d="M 1.562771201133728 25.17792892456055 L 1.26750123500824 25.1574592590332 L -0.04493878781795502 25.06649971008301 L -1.46898877620697 24.96780967712402 L -0.4596187770366669 23.95843887329102 L 4.312069416046143 19.1867504119873 L 3.615161180496216 18.48984909057617 L 3.155541181564331 18.03022956848145 L 3.615161180496216 17.57060813903809 L 4.909833908081055 16.27592086791992 L 4.739211082458496 16.10529899597168 L 4.279591083526611 15.64567852020264 L 4.739211082458496 15.18605899810791 L 13.01080322265625 6.914456844329834 L 12.41004085540771 6.3136887550354 L 11.95042133331299 5.854068756103516 L 12.41004085540771 5.394448757171631 L 14.24229145050049 3.562208890914917 L 14.70191097259521 3.102588891983032 L 15.16153144836426 3.562208890914917 L 16.98379898071289 5.384469509124756 L 20.33978080749512 2.02847957611084 L 19.68705177307129 1.375748991966248 L 19.22744178771973 0.9161389470100403 L 19.68705177307129 0.4565189778804779 L 20.6031608581543 -0.4596110284328461 L 21.06277084350586 -0.9192410111427307 L 21.52240180969238 -0.4596210420131683 L 22.63478088378906 0.6527389883995056 L 24.46703147888184 2.484988927841187 L 25.57938194274902 3.597328901290894 L 26.03900146484375 4.056949138641357 L 25.57938194274902 4.516569137573242 L 24.66325187683105 5.432699203491211 L 24.2036304473877 5.892319202423096 L 23.74401092529297 5.432699203491211 L 23.09128570556641 4.779962062835693 L 19.73527145385742 8.135959625244141 L 21.55754089355469 9.958229064941406 L 22.01716041564941 10.41784858703613 L 21.55754089355469 10.87746906280518 L 19.72527122497559 12.70970916748047 L 19.26564025878906 13.1693286895752 L 18.80602073669434 12.70969867706299 L 18.20528411865234 12.10894584655762 L 9.933691024780273 20.38053894042969 L 9.474071502685547 20.84015846252441 L 9.014451026916504 20.38053894042969 L 8.843825340270996 20.20990943908691 L 7.549131393432617 21.50458908081055 L 7.08950138092041 21.96420860290527 L 6.629891395568848 21.50458908081055 L 5.93300724029541 20.80769348144531 L 1.772061228752136 24.9686393737793 L 1.562771201133728 25.17792892456055 Z" stroke="none"/>
      <path d="M 21.06278228759766 -1.9073486328125e-06 L 20.14667129516602 0.9161281585693359 L 21.2590217590332 2.028478622436523 L 16.98380088806152 6.303709030151367 L 14.70191097259521 4.021829605102539 L 12.86966133117676 5.854068756103516 L 13.93004131317139 6.914459228515625 L 5.198831558227539 15.64567852020264 L 5.829071044921875 16.27591896057129 L 4.07478141784668 18.03022003173828 L 5.231300354003906 19.18674850463867 L 1.9073486328125e-06 24.41805839538574 L 1.312440872192383 24.50901985168457 L 5.933012008666992 19.88844871520996 L 7.089511871337891 21.04496955871582 L 8.843832015991211 19.29066848754883 L 9.474071502685547 19.92091941833496 L 18.20529174804688 11.18969917297363 L 19.26565170288086 12.25008869171143 L 21.09792137145996 10.41784858703613 L 18.81603050231934 8.135959625244141 L 23.0912914276123 3.860719680786133 L 24.2036304473877 4.973079681396484 L 25.11976051330566 4.056949615478516 L 21.06278228759766 -1.9073486328125e-06 M 21.06277084350586 -1.30000114440918 C 21.40755081176758 -1.30000114440918 21.73821067810059 -1.163040161132812 21.98201179504395 -0.91925048828125 L 26.03899192810059 3.13770866394043 C 26.28279113769531 3.381498336791992 26.41976165771484 3.712158203125 26.41976165771484 4.056949615478516 C 26.41976165771484 4.401729583740234 26.28280067443848 4.732389450073242 26.03900146484375 4.976188659667969 L 25.12287139892578 5.892318725585938 C 24.87907028198242 6.136119842529297 24.54841041564941 6.273078918457031 24.20362091064453 6.273078918457031 C 23.85884094238281 6.273078918457031 23.5281810760498 6.1361083984375 23.28438186645508 5.892309188842773 L 23.09127998352051 5.69920539855957 L 20.65451431274414 8.135961532592773 L 22.01716041564941 9.498608589172363 C 22.26096153259277 9.742408752441406 22.39792060852051 10.07306861877441 22.39792060852051 10.41785907745361 C 22.39792060852051 10.76263904571533 22.26095199584961 11.09329891204834 22.01715087890625 11.33709907531738 L 20.18488121032715 13.16933917999268 C 19.94108200073242 13.41312885284424 19.61042022705078 13.55008888244629 19.26564025878906 13.55008888244629 C 18.92085075378418 13.55008888244629 18.59019088745117 13.41311931610107 18.34640121459961 13.16931915283203 L 18.20527839660645 13.02819156646729 L 10.39331150054932 20.84015846252441 C 10.14951133728027 21.08395957946777 9.818851470947266 21.22091865539551 9.474061012268066 21.22091865539551 C 9.269474029541016 21.22091865539551 9.069868087768555 21.17269515991211 8.890422821044922 21.0825366973877 L 8.00874137878418 21.96420860290527 C 7.76494026184082 22.20800971984863 7.434280395507812 22.34496879577637 7.089500427246094 22.34496879577637 C 6.744720458984375 22.34496879577637 6.414060592651367 22.20799827575684 6.170261383056641 21.96419906616211 L 5.933002471923828 21.72693634033203 L 2.231681823730469 25.42825889587402 C 1.965763092041016 25.69417953491211 1.597749710083008 25.8319091796875 1.222560882568359 25.805908203125 L -0.08987808227539062 25.7149486541748 C -0.5981292724609375 25.67971801757812 -1.038959503173828 25.35085868835449 -1.217529296875 24.87370872497559 C -1.396099090576172 24.39654922485352 -1.279489517211914 23.85906982421875 -0.9192390441894531 23.49881935119629 L 3.392831802368164 19.18674087524414 L 3.155540466308594 18.94944953918457 C 2.647861480712891 18.44176864624023 2.647861480712891 17.61865997314453 3.155540466308594 17.1109790802002 L 4.036941528320312 16.22957229614258 C 3.791973114013672 15.7423267364502 3.87286376953125 15.13316535949707 4.279590606689453 14.72643852233887 L 12.09157085418701 6.914449691772461 L 11.95042133331299 6.773298263549805 C 11.44274139404297 6.265619277954102 11.44274139404297 5.442508697509766 11.95042133331299 4.934829711914062 L 13.78267097473145 3.102588653564453 C 14.29035186767578 2.59490966796875 15.11347198486328 2.59490966796875 15.62115097045898 3.102588653564453 L 16.98379898071289 4.465229034423828 L 19.42054176330566 2.028480529785156 L 19.22743225097656 1.835369110107422 C 18.71975135803223 1.327688217163086 18.71975135803223 0.5045795440673828 19.22742080688477 -0.003101348876953125 L 20.14353179931641 -0.9192314147949219 C 20.38733100891113 -1.163030624389648 20.71799087524414 -1.30000114440918 21.06277084350586 -1.30000114440918 Z" stroke="none" fill="#fff"/>
    </g>
    <g id="Grupo_392" data-name="Grupo 392" transform="translate(9.361 11.918)">
      <path id="Caminho_214" data-name="Caminho 214" d="M0,0,2.459,2.451" transform="translate(0 3.308)" fill="#f72585" stroke="#fff" stroke-linecap="round" stroke-width="1.3"/>
      <path id="Caminho_215" data-name="Caminho 215" d="M0,0,2.459,2.451" transform="translate(3.308 0)" fill="#f72585" stroke="#fff" stroke-linecap="round" stroke-width="1.3"/>
    </g>
    <path id="Caminho_260" data-name="Caminho 260" d="M6.65,6.629,0,0" transform="translate(14.904 3.577)" fill="none" stroke="#fff" stroke-width="1.3"/>
    <path id="Caminho_262" data-name="Caminho 262" d="M6.562,6.533,0,0" transform="translate(12.446 6.155)" fill="none" stroke="#fff" stroke-width="1.3"/>
    <path id="Caminho_261" data-name="Caminho 261" d="M3.2,3.224,0,0" transform="translate(3.609 18.251)" fill="none" stroke="#fff" stroke-width="1.3"/>
  </g>
</svg>
